# xmcd
# 
# Track frame offsets:
#     150
#     13347
#     25577
#     38555
#     60355
#     73252
#     86035
#     97377
#     110707
#     125502
#     140112
# 
# Disc length: 2025
# 
# Revision: 5
# Processed by: cddbd v1.5.2PL0 Copyright (c) Steve Scherf et al.
# Submitted via: BonkEnc v1.0.15
# 
DISCID=a007e70b
DTITLE=Dr. John d - In the Right Place
DYEAR=1973
DGENRE=Rock
TTITLE0=Right Place, Wrong Time
TTITLE1=Same Old Same Old
TTITLE2=Just the Same
TTITLE3=Qualified
TTITLE4=Traveling Mood
TTITLE5=Peace Brother Peace
TTITLE6=Life
TTITLE7=Such a Night
TTITLE8=Shoo Fly Marches On
TTITLE9=I Been Hoodood
TTITLE10=Cold Cold Cold
EXTD=\t\t YEAR: 1973 ID3G: 17
EXTT0=
EXTT1=
EXTT2=
EXTT3=
EXTT4=
EXTT5=
EXTT6=
EXTT7=
EXTT8=
EXTT9=
EXTT10=
PLAYORDER=
